<svg width="90" height="80" viewBox="0 0 90 80" fill="none" xmlns="http://www.w3.org/2000/svg">
<path d="M38.353 3.8387L1.02933 68.4805C0.355132 69.6479 0.00012478 70.9721 3.28876e-08 72.3202C-0.000124714 73.6682 0.354637 74.9925 1.02862 76.16C1.7026 77.3275 2.67205 78.2969 3.8395 78.9709C5.00696 79.6449 6.33128 79.9997 7.67932 79.9996H82.3207C83.6687 79.9997 84.993 79.6449 86.1605 78.9709C87.3279 78.2969 88.2974 77.3275 88.9714 76.16C89.6454 74.9925 90.0001 73.6682 90 72.3202C89.9999 70.9721 89.6449 69.6479 88.9707 68.4805L51.651 3.8387C50.9771 2.67158 50.0079 1.7024 48.8408 1.02857C47.6736 0.354742 46.3497 0 45.002 0C43.6543 0 42.3304 0.354742 41.1632 1.02857C39.9961 1.7024 39.0269 2.67158 38.353 3.8387Z" fill="#FFB400"/>
<path d="M45.4876 23.7759H44.514C42.117 23.7759 40.1738 25.719 40.1738 28.1161V48.8613C40.1738 51.2583 42.117 53.2015 44.514 53.2015H45.4876C47.8846 53.2015 49.8278 51.2583 49.8278 48.8613V28.1161C49.8278 25.719 47.8846 23.7759 45.4876 23.7759Z" fill="#FCF4D9"/>
<path d="M45.0008 69.6544C47.6667 69.6544 49.8278 67.4933 49.8278 64.8275C49.8278 62.1616 47.6667 60.0005 45.0008 60.0005C42.3349 60.0005 40.1738 62.1616 40.1738 64.8275C40.1738 67.4933 42.3349 69.6544 45.0008 69.6544Z" fill="#FCF4D9"/>
</svg>
