<svg width="100" height="100" viewBox="0 0 100 100" fill="none" xmlns="http://www.w3.org/2000/svg">
<path d="M50 100C77.6142 100 100 77.6142 100 50C100 22.3858 77.6142 0 50 0C22.3858 0 0 22.3858 0 50C0 77.6142 22.3858 100 50 100Z" fill="#E63946"/>
<path d="M57.0497 50L68.5497 38.55C69.4912 37.6084 70.0201 36.3315 70.0201 35C70.0201 33.6684 69.4912 32.3915 68.5497 31.45C67.6082 30.5084 66.3312 29.9795 64.9997 29.9795C63.6682 29.9795 62.3912 30.5084 61.4497 31.45L49.9997 42.95L38.5497 31.45C37.6082 30.5084 36.3312 29.9795 34.9997 29.9795C33.6682 29.9795 32.3912 30.5084 31.4497 31.45C30.5082 32.3915 29.9792 33.6684 29.9792 35C29.9792 36.3315 30.5082 37.6084 31.4497 38.55L42.9497 50L31.4497 61.45C30.9811 61.9148 30.6091 62.4678 30.3552 63.0771C30.1014 63.6864 29.9707 64.3399 29.9707 65C29.9707 65.66 30.1014 66.3135 30.3552 66.9228C30.6091 67.5321 30.9811 68.0851 31.4497 68.5499C31.9145 69.0186 32.4675 69.3906 33.0768 69.6444C33.6861 69.8983 34.3396 70.0289 34.9997 70.0289C35.6598 70.0289 36.3133 69.8983 36.9226 69.6444C37.5319 69.3906 38.0849 69.0186 38.5497 68.5499L49.9997 57.0499L61.4497 68.5499C61.9145 69.0186 62.4675 69.3906 63.0768 69.6444C63.6861 69.8983 64.3396 70.0289 64.9997 70.0289C65.6598 70.0289 66.3133 69.8983 66.9226 69.6444C67.5319 69.3906 68.0849 69.0186 68.5497 68.5499C69.0183 68.0851 69.3903 67.5321 69.6441 66.9228C69.898 66.3135 70.0287 65.66 70.0287 65C70.0287 64.3399 69.898 63.6864 69.6441 63.0771C69.3903 62.4678 69.0183 61.9148 68.5497 61.45L57.0497 50Z" fill="#EDEBEA"/>
</svg>
