<svg width="98" height="107" viewBox="0 0 98 107" fill="none" xmlns="http://www.w3.org/2000/svg">
<path d="M89.91 13.9102C83.2059 13.1996 76.6078 11.7078 70.25 9.46515C64.4177 7.4044 58.8226 4.72583 53.56 1.47515C52.1874 0.635024 50.6093 0.19043 49 0.19043C47.3907 0.19043 45.8126 0.635024 44.44 1.47515C39.1774 4.7259 33.5823 7.40447 27.75 9.46515C21.3922 11.7078 14.7941 13.1996 8.09 13.9102C5.9395 14.1317 3.94754 15.1428 2.49938 16.7479C1.05122 18.3531 0.249759 20.4383 0.25 22.6002V48.5802C0.254167 58.1651 2.81964 67.5748 7.68094 75.8355C12.5422 84.0961 19.5227 90.9077 27.9 95.5652L44.75 104.925C46.0485 105.652 47.5118 106.034 49 106.034C50.4882 106.034 51.9515 105.652 53.25 104.925L70.1 95.5652C78.4773 90.9077 85.4578 84.0961 90.3191 75.8355C95.1804 67.5748 97.7458 58.1651 97.75 48.5802V22.6002C97.7502 20.4383 96.9488 18.3531 95.5006 16.7479C94.0525 15.1428 92.0605 14.1317 89.91 13.9102Z" fill="#0DB561"/>
<path d="M45.4997 69.1651C44.0301 69.1682 42.611 68.6287 41.5147 67.6501L27.2647 54.9851C26.6511 54.469 26.1472 53.8351 25.7828 53.121C25.4183 52.4069 25.2006 51.627 25.1427 50.8273C25.0847 50.0277 25.1876 49.2245 25.4452 48.4653C25.7029 47.706 26.1101 47.0062 26.6428 46.407C27.1755 45.8078 27.8229 45.3214 28.5467 44.9766C29.2705 44.6318 30.0561 44.4356 30.857 44.3995C31.658 44.3635 32.458 44.4883 33.2099 44.7666C33.9618 45.045 34.6503 45.4712 35.2347 46.0201L45.1197 54.8001L64.8697 33.7301C65.9585 32.5704 67.463 31.8902 69.0528 31.8386C70.6427 31.7871 72.188 32.3684 73.3497 33.4551C74.5115 34.5434 75.1937 36.0485 75.2462 37.6396C75.2987 39.2307 74.7173 40.7775 73.6297 41.9401L49.8797 67.2701C49.3198 67.8713 48.6418 68.3504 47.8881 68.6774C47.1344 69.0043 46.3212 69.1721 45.4997 69.1701V69.1651Z" fill="white"/>
</svg>
