<svg width="16" height="16" viewBox="0 0 16 16" fill="none" xmlns="http://www.w3.org/2000/svg">
<path d="M15.1875 1.75V5.5C15.1875 5.74864 15.0887 5.9871 14.9129 6.16291C14.7371 6.33873 14.4986 6.4375 14.25 6.4375C14.0014 6.4375 13.7629 6.33873 13.5871 6.16291C13.4113 5.9871 13.3125 5.74864 13.3125 5.5V4.01562L10.5383 6.79062C10.3622 6.96674 10.1233 7.06569 9.87422 7.06569C9.62515 7.06569 9.38628 6.96674 9.21016 6.79062C9.03404 6.6145 8.93509 6.37563 8.93509 6.12656C8.93509 5.87749 9.03404 5.63862 9.21016 5.4625L11.9844 2.6875H10.5C10.2514 2.6875 10.0129 2.58873 9.83709 2.41291C9.66127 2.2371 9.5625 1.99864 9.5625 1.75C9.5625 1.50136 9.66127 1.2629 9.83709 1.08709C10.0129 0.911272 10.2514 0.8125 10.5 0.8125H14.25C14.4986 0.8125 14.7371 0.911272 14.9129 1.08709C15.0887 1.2629 15.1875 1.50136 15.1875 1.75ZM5.46172 9.21172L2.6875 11.9844V10.5C2.6875 10.2514 2.58873 10.0129 2.41291 9.83709C2.2371 9.66127 1.99864 9.5625 1.75 9.5625C1.50136 9.5625 1.2629 9.66127 1.08709 9.83709C0.911272 10.0129 0.8125 10.2514 0.8125 10.5V14.25C0.8125 14.4986 0.911272 14.7371 1.08709 14.9129C1.2629 15.0887 1.50136 15.1875 1.75 15.1875H5.5C5.74864 15.1875 5.9871 15.0887 6.16291 14.9129C6.33873 14.7371 6.4375 14.4986 6.4375 14.25C6.4375 14.0014 6.33873 13.7629 6.16291 13.5871C5.9871 13.4113 5.74864 13.3125 5.5 13.3125H4.01562L6.79062 10.5383C6.96674 10.3622 7.06569 10.1233 7.06569 9.87422C7.06569 9.62515 6.96674 9.38628 6.79062 9.21016C6.6145 9.03404 6.37563 8.93509 6.12656 8.93509C5.87749 8.93509 5.63862 9.03404 5.4625 9.21016L5.46172 9.21172ZM14.25 9.5625C14.0014 9.5625 13.7629 9.66127 13.5871 9.83709C13.4113 10.0129 13.3125 10.2514 13.3125 10.5V11.9844L10.5383 9.20937C10.3622 9.03325 10.1233 8.93431 9.87422 8.93431C9.62515 8.93431 9.38628 9.03325 9.21016 9.20937C9.03404 9.3855 8.93509 9.62437 8.93509 9.87344C8.93509 10.1225 9.03404 10.3614 9.21016 10.5375L11.9844 13.3125H10.5C10.2514 13.3125 10.0129 13.4113 9.83709 13.5871C9.66127 13.7629 9.5625 14.0014 9.5625 14.25C9.5625 14.4986 9.66127 14.7371 9.83709 14.9129C10.0129 15.0887 10.2514 15.1875 10.5 15.1875H14.25C14.4986 15.1875 14.7371 15.0887 14.9129 14.9129C15.0887 14.7371 15.1875 14.4986 15.1875 14.25V10.5C15.1875 10.2514 15.0887 10.0129 14.9129 9.83709C14.7371 9.66127 14.4986 9.5625 14.25 9.5625ZM4.01562 2.6875H5.5C5.74864 2.6875 5.9871 2.58873 6.16291 2.41291C6.33873 2.2371 6.4375 1.99864 6.4375 1.75C6.4375 1.50136 6.33873 1.2629 6.16291 1.08709C5.9871 0.911272 5.74864 0.8125 5.5 0.8125H1.75C1.50136 0.8125 1.2629 0.911272 1.08709 1.08709C0.911272 1.2629 0.8125 1.50136 0.8125 1.75V5.5C0.8125 5.74864 0.911272 5.9871 1.08709 6.16291C1.2629 6.33873 1.50136 6.4375 1.75 6.4375C1.99864 6.4375 2.2371 6.33873 2.41291 6.16291C2.58873 5.9871 2.6875 5.74864 2.6875 5.5V4.01562L5.46172 6.79062C5.63784 6.96674 5.87671 7.06569 6.12578 7.06569C6.37485 7.06569 6.61372 6.96674 6.78984 6.79062C6.96596 6.6145 7.06491 6.37563 7.06491 6.12656C7.06491 5.87749 6.96596 5.63862 6.78984 5.4625L4.01562 2.6875Z" fill="#99A1B7"/>
</svg>
